<svg xmlns="http://www.w3.org/2000/svg" width="53.367" height="52.517" viewBox="62.983 72 53.367 52.517"><g data-name="XMLID_6_"><path d="M71.535 101.172h28.963c1.38 0 2.5-1.306 2.5-2.917 0-1.611-1.12-2.917-2.5-2.917H71.535l3.232-3.772c.976-1.14.976-2.986 0-4.126-.976-1.139-2.559-1.139-3.535 0l-7.5 8.752c-.058.068-.113.14-.166.214-.023.033-.042.067-.064.1-.027.043-.056.085-.081.13-.023.04-.044.082-.065.124-.02.04-.042.08-.06.12-.02.043-.037.087-.055.13-.017.043-.035.085-.05.129-.016.042-.028.086-.041.129-.015.047-.03.093-.042.14-.011.043-.02.087-.029.131-.01.048-.022.097-.03.146-.009.05-.014.101-.02.152-.006.043-.013.086-.016.13a3.42 3.42 0 0 0-.013.284v.008c0 .095.005.19.013.284.003.043.01.085.015.128.007.052.012.103.02.154.009.049.02.096.03.144.01.045.019.089.03.133.012.047.027.092.041.138.014.044.026.088.042.131.015.043.033.084.05.126.018.044.035.09.055.133.018.04.039.078.059.116.021.043.042.087.066.129.025.042.052.082.078.123.022.035.043.072.068.106.05.07.102.139.157.204l.008.01 7.5 8.751c.488.57 1.128.855 1.767.855.64 0 1.28-.285 1.768-.855.976-1.139.976-2.986 0-4.125l-3.232-3.772Z" fill="#fff" fill-rule="evenodd" data-name="XMLID_7_"/><path d="M113.831 72H82.166c-1.38 0-2.5 1.306-2.5 2.917v11.669c0 1.61 1.12 2.917 2.5 2.917s2.5-1.306 2.5-2.917v-8.752h26.665v40.84H84.666v-8.75c0-1.612-1.12-2.918-2.5-2.918s-2.5 1.306-2.5 2.917v11.669c0 1.611 1.12 2.917 2.5 2.917h31.665c1.38 0 2.5-1.306 2.5-2.917V74.917c0-1.61-1.12-2.917-2.5-2.917Z" fill="#fff" fill-rule="evenodd" data-name="XMLID_8_"/></g></svg>