<svg xmlns="http://www.w3.org/2000/svg" width="48.783" height="57.65" viewBox="55.983 84.417 48.783 57.65"><path d="M80.517 94.476c.981 0 3.312.62 3.312.62 6.315 1.448 10.76 7.264 10.76 13.831V126.603l1.29 1.297 1.08 1.084h-33.16l1.078-1.084 1.291-1.297V108.927c0-6.567 4.445-12.383 10.76-13.83 0 0 2.5-.62 3.312-.62m.139-10.04c-2.439 0-4.303 1.873-4.303 4.323v2.016c-8.174 1.873-14.34 9.364-14.34 18.151v15.846L56 130.535v2.882h48.757v-2.882l-5.736-5.762v-15.846c0-8.787-6.166-16.278-14.34-18.15V88.76c0-2.45-1.864-4.322-4.302-4.322Zm5.736 51.86H74.642c0 3.17 2.581 5.763 5.737 5.763 3.155 0 5.736-2.593 5.736-5.762Z" fill="#fff" fill-rule="evenodd" data-name="Icon ionic-md-notifications-outline"/></svg>